<svg xmlns="http://www.w3.org/2000/svg" width="100" height="100" viewBox="0 0 100 100">
  <g fill="#FF4747" fill-rule="evenodd">
    <path fill-rule="nonzero" d="M50,99 C77.0619527,99 99,77.0619527 99,50 C99,22.9380473 77.0619527,1 50,1 C22.9380473,1 1,22.9380473 1,50 C1,77.0619527 22.9380473,99 50,99 Z M50,100 C22.3857625,100 0,77.6142375 0,50 C0,22.3857625 22.3857625,0 50,0 C77.6142375,0 100,22.3857625 100,50 C100,77.6142375 77.6142375,100 50,100 Z"/>
    <path d="M41.55,41.58 C40.8099963,42.3600039 39.9600048,42.9699978 39,43.41 C38.0399952,43.8500022 37.0400052,44.1199995 36,44.22 L36,43.23 C37.200006,43.0499991 38.2899951,42.6300033 39.27,41.97 C40.2500049,41.3099967 41.0499969,40.4400054 41.67,39.36 L42.69,39.36 L42.69,60.06 L41.55,60.06 L41.55,41.58 Z M55.78,60.42 C54.2799925,60.42 53.0500048,60.0950033 52.09,59.445 C51.1299952,58.7949968 50.3650028,57.9550052 49.795,56.925 C49.2249971,55.8949949 48.8300011,54.7450064 48.61,53.475 C48.3899989,52.2049937 48.28,50.9500062 48.28,49.71 C48.28,48.4699938 48.3899989,47.2150063 48.61,45.945 C48.8300011,44.6749937 49.2249971,43.5250051 49.795,42.495 C50.3650028,41.4649949 51.1299952,40.6250033 52.09,39.975 C53.0500048,39.3249968 54.2799925,39 55.78,39 C57.2800075,39 58.5099952,39.3249968 59.47,39.975 C60.4300048,40.6250033 61.1949971,41.4649949 61.765,42.495 C62.3350028,43.5250051 62.7299989,44.6749937 62.95,45.945 C63.1700011,47.2150063 63.28,48.4699938 63.28,49.71 C63.28,50.9500062 63.1700011,52.2049937 62.95,53.475 C62.7299989,54.7450064 62.3350028,55.8949949 61.765,56.925 C61.1949971,57.9550052 60.4300048,58.7949968 59.47,59.445 C58.5099952,60.0950033 57.2800075,60.42 55.78,60.42 Z M55.78,59.43 C57.0600064,59.43 58.1149958,59.1200031 58.945,58.5 C59.7750041,57.8799969 60.4249976,57.0900048 60.895,56.13 C61.3650023,55.1699952 61.6899991,54.1200057 61.87,52.98 C62.0500009,51.8399943 62.14,50.7500052 62.14,49.71 C62.14,48.6699948 62.0500009,47.5800057 61.87,46.44 C61.6899991,45.2999943 61.3650023,44.2500048 60.895,43.29 C60.4249976,42.3299952 59.7750041,41.5400031 58.945,40.92 C58.1149958,40.2999969 57.0600064,39.99 55.78,39.99 C54.4799935,39.99 53.4200041,40.2999969 52.6,40.92 C51.7799959,41.5400031 51.1350023,42.3299952 50.665,43.29 C50.1949976,44.2500048 49.8700009,45.2999943 49.69,46.44 C49.5099991,47.5800057 49.42,48.6699948 49.42,49.71 C49.42,50.7500052 49.5099991,51.8399943 49.69,52.98 C49.8700009,54.1200057 50.1949976,55.1699952 50.665,56.13 C51.1350023,57.0900048 51.7799959,57.8799969 52.6,58.5 C53.4200041,59.1200031 54.4799935,59.43 55.78,59.43 Z"/>
  </g>
</svg>
