<?xml version="1.0" encoding="utf-8"?>
<!-- Generator: Adobe Illustrator 22.1.0, SVG Export Plug-In . SVG Version: 6.00 Build 0)  -->
<svg version="1.1" id="Layer_1" xmlns="http://www.w3.org/2000/svg" xmlns:xlink="http://www.w3.org/1999/xlink" x="0px" y="0px"
	 viewBox="0 0 100 379.1" style="enable-background:new 0 0 100 379.1;" xml:space="preserve">
<style type="text/css">
	.st0{fill:#FF4747;}
	.st1{fill:none;stroke:#FF4747;stroke-miterlimit:10;}
</style>
<g>
	<path class="st0" d="M50,99c27.1,0,49-21.9,49-49S77.1,1,50,1S1,22.9,1,50S22.9,99,50,99z M50,100C22.4,100,0,77.6,0,50
		S22.4,0,50,0s50,22.4,50,50S77.6,100,50,100z"/>
	<path class="st0" d="M41.5,41.6C40.8,42.4,40,43,39,43.4s-2,0.7-3,0.8v-1c1.2-0.2,2.3-0.6,3.3-1.3c1-0.7,1.8-1.5,2.4-2.6h1v20.7
		h-1.1V41.6z M55.8,60.4c-1.5,0-2.7-0.3-3.7-1c-1-0.7-1.7-1.5-2.3-2.5c-0.6-1-1-2.2-1.2-3.5c-0.2-1.3-0.3-2.5-0.3-3.8
		s0.1-2.5,0.3-3.8c0.2-1.3,0.6-2.4,1.2-3.5c0.6-1,1.3-1.9,2.3-2.5c1-0.7,2.2-1,3.7-1s2.7,0.3,3.7,1c1,0.7,1.7,1.5,2.3,2.5
		c0.6,1,1,2.2,1.2,3.5c0.2,1.3,0.3,2.5,0.3,3.8s-0.1,2.5-0.3,3.8c-0.2,1.3-0.6,2.4-1.2,3.5c-0.6,1-1.3,1.9-2.3,2.5
		C58.5,60.1,57.3,60.4,55.8,60.4z M55.8,59.4c1.3,0,2.3-0.3,3.2-0.9s1.5-1.4,2-2.4c0.5-1,0.8-2,1-3.2s0.3-2.2,0.3-3.3
		s-0.1-2.1-0.3-3.3c-0.2-1.1-0.5-2.2-1-3.1c-0.5-1-1.1-1.7-2-2.4c-0.8-0.6-1.9-0.9-3.2-0.9c-1.3,0-2.4,0.3-3.2,0.9
		c-0.8,0.6-1.5,1.4-1.9,2.4c-0.5,1-0.8,2-1,3.1c-0.2,1.1-0.3,2.2-0.3,3.3s0.1,2.1,0.3,3.3c0.2,1.1,0.5,2.2,1,3.2
		c0.5,1,1.1,1.7,1.9,2.4C53.4,59.1,54.5,59.4,55.8,59.4z"/>
</g>
<g>
	<path class="st0" d="M50,238.5c27.1,0,49-21.9,49-49s-21.9-49-49-49s-49,21.9-49,49S22.9,238.5,50,238.5z M50,239.5
		c-27.6,0-50-22.4-50-50s22.4-50,50-50s50,22.4,50,50S77.6,239.5,50,239.5z"/>
	<path class="st0" d="M34,199.6c0.1-1,0.3-1.8,0.7-2.6s0.9-1.5,1.5-2.1c0.6-0.6,1.2-1.2,2-1.8c0.7-0.5,1.5-1.1,2.2-1.6
		c0.7-0.5,1.5-1,2.2-1.5c0.7-0.5,1.4-1.1,1.9-1.6c0.6-0.6,1-1.2,1.4-1.9s0.5-1.5,0.5-2.4c0-0.7-0.1-1.3-0.4-1.9s-0.7-1.1-1.1-1.5
		s-1-0.7-1.6-0.9c-0.6-0.2-1.3-0.3-1.9-0.3c-0.9,0-1.8,0.2-2.5,0.5s-1.3,0.8-1.7,1.3c-0.5,0.6-0.8,1.2-1,2c-0.2,0.8-0.3,1.6-0.3,2.5
		h-1.1c0.1-2.5,0.7-4.4,1.8-5.6c1.1-1.2,2.7-1.8,4.7-1.8c0.9,0,1.7,0.1,2.5,0.3c0.8,0.2,1.5,0.6,2,1.1c0.6,0.5,1,1.1,1.4,1.8
		c0.3,0.7,0.5,1.5,0.5,2.5c0,1.2-0.3,2.3-0.9,3.2c-0.6,0.9-1.3,1.8-2.2,2.5c-0.9,0.8-1.8,1.5-2.8,2.1c-1,0.7-2,1.3-2.8,2
		c-0.9,0.7-1.6,1.3-2.3,2c-0.6,0.7-1,1.5-1.1,2.4h12.4v1.1H34z M57.6,200c-1.5,0-2.7-0.3-3.7-1c-1-0.6-1.7-1.5-2.3-2.5
		c-0.6-1-1-2.2-1.2-3.5c-0.2-1.3-0.3-2.5-0.3-3.8s0.1-2.5,0.3-3.8c0.2-1.3,0.6-2.4,1.2-3.4c0.6-1,1.3-1.9,2.3-2.5c1-0.6,2.2-1,3.7-1
		s2.7,0.3,3.7,1c1,0.7,1.7,1.5,2.3,2.5c0.6,1,1,2.2,1.2,3.4c0.2,1.3,0.3,2.5,0.3,3.8s-0.1,2.5-0.3,3.8c-0.2,1.3-0.6,2.4-1.2,3.5
		c-0.6,1-1.3,1.9-2.3,2.5C60.4,199.6,59.1,200,57.6,200z M57.6,199c1.3,0,2.3-0.3,3.2-0.9c0.8-0.6,1.5-1.4,2-2.4c0.5-1,0.8-2,1-3.2
		c0.2-1.1,0.3-2.2,0.3-3.3c0-1-0.1-2.1-0.3-3.3c-0.2-1.1-0.5-2.2-1-3.2c-0.5-1-1.1-1.7-2-2.4s-1.9-0.9-3.2-0.9
		c-1.3,0-2.4,0.3-3.2,0.9s-1.5,1.4-1.9,2.4c-0.5,1-0.8,2-1,3.2c-0.2,1.1-0.3,2.2-0.3,3.3c0,1,0.1,2.1,0.3,3.3c0.2,1.1,0.5,2.2,1,3.2
		c0.5,1,1.1,1.7,1.9,2.4C55.3,198.7,56.3,199,57.6,199z"/>
</g>
<g>
	<path class="st0" d="M50,378.1c27.1,0,49-21.9,49-49s-21.9-49-49-49S1,302,1,329.1S22.9,378.1,50,378.1z M50,379.1
		c-27.6,0-50-22.4-50-50s22.4-50,50-50s50,22.4,50,50S77.6,379.1,50,379.1z"/>
	<path class="st0" d="M35.2,332.3c0,1,0.1,1.8,0.3,2.6c0.3,0.8,0.7,1.4,1.2,1.9c0.5,0.5,1.2,0.9,1.9,1.2c0.8,0.3,1.6,0.4,2.6,0.4
		c0.8,0,1.5-0.1,2.2-0.3s1.4-0.5,1.9-1s1-1,1.3-1.6c0.3-0.6,0.5-1.4,0.5-2.2c0-1-0.2-1.8-0.6-2.4c-0.4-0.7-0.9-1.2-1.6-1.5
		c-0.7-0.4-1.4-0.6-2.2-0.7c-0.8-0.1-1.7-0.1-2.5-0.1v-1c0.8,0,1.5,0,2.3-0.1c0.8-0.1,1.5-0.3,2.1-0.7c0.6-0.3,1.1-0.8,1.5-1.4
		c0.4-0.6,0.6-1.3,0.6-2.2c0-0.7-0.2-1.4-0.5-1.9c-0.3-0.5-0.8-1-1.3-1.3c-0.5-0.3-1.1-0.6-1.8-0.8c-0.7-0.2-1.3-0.3-1.9-0.3
		c-0.9,0-1.7,0.1-2.4,0.5c-0.7,0.3-1.2,0.7-1.7,1.2c-0.5,0.5-0.8,1.1-1,1.9s-0.4,1.5-0.4,2.4h-1.1c0-1,0.2-2,0.5-2.8
		s0.8-1.6,1.3-2.2c0.6-0.6,1.3-1.1,2.1-1.4c0.8-0.3,1.7-0.5,2.8-0.5c0.8,0,1.7,0.1,2.4,0.3c0.8,0.2,1.5,0.5,2.1,0.9
		c0.6,0.4,1.1,1,1.5,1.6s0.6,1.4,0.6,2.4c0,0.6-0.1,1.2-0.3,1.7c-0.2,0.5-0.5,1-0.8,1.4c-0.4,0.4-0.8,0.8-1.3,1
		c-0.5,0.3-1,0.4-1.6,0.5v0.1c0.7,0.1,1.3,0.3,1.9,0.6c0.6,0.3,1,0.7,1.4,1.2s0.7,1,0.9,1.6c0.2,0.6,0.3,1.3,0.3,2
		c0,1-0.2,1.9-0.6,2.7s-0.9,1.4-1.5,1.9s-1.4,0.9-2.2,1.1c-0.9,0.3-1.8,0.4-2.7,0.4c-1.1,0-2.2-0.2-3.1-0.5
		c-0.9-0.3-1.7-0.8-2.3-1.4c-0.6-0.6-1.1-1.4-1.4-2.2c-0.3-0.9-0.4-1.9-0.4-3.1H35.2z M58,339.5c-1.5,0-2.7-0.3-3.7-1
		c-1-0.7-1.7-1.5-2.3-2.5c-0.6-1-1-2.2-1.2-3.4c-0.2-1.3-0.3-2.5-0.3-3.8c0-1.2,0.1-2.5,0.3-3.8c0.2-1.3,0.6-2.4,1.2-3.5
		c0.6-1,1.3-1.9,2.3-2.5c1-0.7,2.2-1,3.7-1s2.7,0.3,3.7,1c1,0.6,1.7,1.5,2.3,2.5s1,2.2,1.2,3.5c0.2,1.3,0.3,2.5,0.3,3.8
		c0,1.2-0.1,2.5-0.3,3.8c-0.2,1.3-0.6,2.4-1.2,3.4c-0.6,1-1.3,1.9-2.3,2.5C60.7,339.2,59.5,339.5,58,339.5z M58,338.5
		c1.3,0,2.3-0.3,3.2-0.9s1.5-1.4,2-2.4c0.5-1,0.8-2,1-3.1c0.2-1.1,0.3-2.2,0.3-3.3s-0.1-2.1-0.3-3.3s-0.5-2.2-1-3.1
		c-0.5-1-1.1-1.8-2-2.4c-0.8-0.6-1.9-0.9-3.2-0.9c-1.3,0-2.4,0.3-3.2,0.9c-0.8,0.6-1.5,1.4-1.9,2.4c-0.5,1-0.8,2-1,3.1
		s-0.3,2.2-0.3,3.3s0.1,2.1,0.3,3.3c0.2,1.1,0.5,2.2,1,3.1c0.5,1,1.1,1.8,1.9,2.4C55.6,338.2,56.7,338.5,58,338.5z"/>
</g>
<line class="st1" x1="50" y1="239.5" x2="50" y2="280.1"/>
<line class="st1" x1="50" y1="99.5" x2="50" y2="140"/>
</svg>
