<svg xmlns="http://www.w3.org/2000/svg" width="100" height="100" viewBox="0 0 100 100">
  <g fill="#FF4747" fill-rule="evenodd">
    <path fill-rule="nonzero" d="M50,99 C77.0619527,99 99,77.0619527 99,50 C99,22.9380473 77.0619527,1 50,1 C22.9380473,1 1,22.9380473 1,50 C1,77.0619527 22.9380473,99 50,99 Z M50,100 C22.3857625,100 0,77.6142375 0,50 C0,22.3857625 22.3857625,0 50,0 C77.6142375,0 100,22.3857625 100,50 C100,77.6142375 77.6142375,100 50,100 Z"/>
    <path d="M34,60.06 C34.0600003,59.0999952 34.2799981,58.2350038 34.66,57.465 C35.0400019,56.6949962 35.524997,55.9950032 36.115,55.365 C36.705003,54.7349969 37.3649963,54.1500027 38.095,53.61 C38.8250036,53.0699973 39.5699962,52.5500025 40.33,52.05 C41.0700037,51.5499975 41.7999964,51.0450025 42.52,50.535 C43.2400036,50.0249975 43.8849971,49.4800029 44.455,48.9 C45.0250028,48.3199971 45.4799983,47.6850035 45.82,46.995 C46.1600017,46.3049965 46.33,45.5200044 46.33,44.64 C46.33,43.9399965 46.1900014,43.3050028 45.91,42.735 C45.6299986,42.1649972 45.2550023,41.675002 44.785,41.265 C44.3149976,40.854998 43.7750031,40.5400011 43.165,40.32 C42.5549969,40.0999989 41.9100034,39.99 41.23,39.99 C40.2899953,39.99 39.4700035,40.1549983 38.77,40.485 C38.0699965,40.8150016 37.4900023,41.2649971 37.03,41.835 C36.5699977,42.4050029 36.2250011,43.0749962 35.995,43.845 C35.7649988,44.6150038 35.65,45.4499955 35.65,46.35 L34.51,46.35 C34.6300006,43.8299874 35.2349945,41.9750059 36.325,40.785 C37.4150054,39.594994 38.9899897,39 41.05,39 C41.9300044,39 42.7599961,39.1149989 43.54,39.345 C44.3200039,39.5750011 44.9999971,39.9249976 45.58,40.395 C46.1600029,40.8650023 46.6199983,41.4549965 46.96,42.165 C47.3000017,42.8750036 47.47,43.7099952 47.47,44.67 C47.47,45.8900061 47.1850028,46.9649954 46.615,47.895 C46.0449971,48.8250047 45.3250043,49.6699962 44.455,50.43 C43.5849956,51.1900038 42.6450051,51.8999967 41.635,52.56 C40.6249949,53.2200033 39.6750044,53.8749968 38.785,54.525 C37.8949955,55.1750033 37.1350031,55.8549964 36.505,56.565 C35.8749968,57.2750036 35.5200004,58.0599957 35.44,58.92 L47.8,58.92 L47.8,60.06 L34,60.06 Z M57.64,60.42 C56.1399925,60.42 54.9100048,60.0950032 53.95,59.445 C52.9899952,58.7949967 52.2250028,57.9550052 51.655,56.925 C51.0849971,55.8949948 50.6900011,54.7450064 50.47,53.475 C50.2499989,52.2049937 50.14,50.9500062 50.14,49.71 C50.14,48.4699938 50.2499989,47.2150064 50.47,45.945 C50.6900011,44.6749937 51.0849971,43.5250051 51.655,42.495 C52.2250028,41.4649949 52.9899952,40.6250032 53.95,39.975 C54.9100048,39.3249967 56.1399925,39 57.64,39 C59.1400075,39 60.3699952,39.3249967 61.33,39.975 C62.2900048,40.6250032 63.0549971,41.4649949 63.625,42.495 C64.1950028,43.5250051 64.5899989,44.6749937 64.81,45.945 C65.0300011,47.2150064 65.14,48.4699938 65.14,49.71 C65.14,50.9500062 65.0300011,52.2049937 64.81,53.475 C64.5899989,54.7450064 64.1950028,55.8949948 63.625,56.925 C63.0549971,57.9550052 62.2900048,58.7949967 61.33,59.445 C60.3699952,60.0950032 59.1400075,60.42 57.64,60.42 Z M57.64,59.43 C58.9200064,59.43 59.9749958,59.1200031 60.805,58.5 C61.6350041,57.8799969 62.2849977,57.0900048 62.755,56.13 C63.2250024,55.1699952 63.5499991,54.1200057 63.73,52.98 C63.9100009,51.8399943 64,50.7500052 64,49.71 C64,48.6699948 63.9100009,47.5800057 63.73,46.44 C63.5499991,45.2999943 63.2250024,44.2500048 62.755,43.29 C62.2849977,42.3299952 61.6350041,41.5400031 60.805,40.92 C59.9749958,40.2999969 58.9200064,39.99 57.64,39.99 C56.3399935,39.99 55.2800041,40.2999969 54.46,40.92 C53.6399959,41.5400031 52.9950023,42.3299952 52.525,43.29 C52.0549976,44.2500048 51.7300009,45.2999943 51.55,46.44 C51.3699991,47.5800057 51.28,48.6699948 51.28,49.71 C51.28,50.7500052 51.3699991,51.8399943 51.55,52.98 C51.7300009,54.1200057 52.0549976,55.1699952 52.525,56.13 C52.9950023,57.0900048 53.6399959,57.8799969 54.46,58.5 C55.2800041,59.1200031 56.3399935,59.43 57.64,59.43 Z"/>
  </g>
</svg>
