<svg xmlns="http://www.w3.org/2000/svg" width="100" height="100" viewBox="0 0 100 100">
  <g fill="#FF4747" fill-rule="evenodd">
    <path fill-rule="nonzero" d="M50,99 C77.0619527,99 99,77.0619527 99,50 C99,22.9380473 77.0619527,1 50,1 C22.9380473,1 1,22.9380473 1,50 C1,77.0619527 22.9380473,99 50,99 Z M50,100 C22.3857625,100 0,77.6142375 0,50 C0,22.3857625 22.3857625,0 50,0 C77.6142375,0 100,22.3857625 100,50 C100,77.6142375 77.6142375,100 50,100 Z"/>
    <path d="M35.1545948,53.22 C35.1145946,54.1800048 35.2295934,55.0449962 35.4995948,55.815 C35.7695961,56.5850038 36.1645922,57.2349974 36.6845948,57.765 C37.2045974,58.2950027 37.844591,58.7049985 38.6045948,58.995 C39.3645986,59.2850015 40.22459,59.43 41.1845948,59.43 C41.9445986,59.43 42.6845912,59.3200011 43.4045948,59.1 C44.1245984,58.8799989 44.759592,58.5550022 45.3095948,58.125 C45.8595975,57.6949978 46.2995931,57.1600032 46.6295948,56.52 C46.9595964,55.8799968 47.1245948,55.1500041 47.1245948,54.33 C47.1245948,53.3499951 46.9245968,52.5350033 46.5245948,51.885 C46.1245928,51.2349968 45.5945981,50.7300018 44.9345948,50.37 C44.2745915,50.0099982 43.5295989,49.7700006 42.6995948,49.65 C41.8695906,49.5299994 41.0245991,49.4999997 40.1645948,49.56 L40.1645948,48.57 C40.9245986,48.6100002 41.6895909,48.5750005 42.4595948,48.465 C43.2295986,48.3549995 43.9245917,48.1350017 44.5445948,47.805 C45.1645979,47.4749983 45.6695928,47.0200029 46.0595948,46.44 C46.4495967,45.8599971 46.6445948,45.1200045 46.6445948,44.22 C46.6445948,43.4999964 46.4795964,42.8700027 46.1495948,42.33 C45.8195931,41.7899973 45.3895974,41.3500017 44.8595948,41.01 C44.3295921,40.6699983 43.739598,40.4150008 43.0895948,40.245 C42.4395915,40.0749992 41.8045979,39.99 41.1845948,39.99 C40.2845903,39.99 39.4945982,40.1399985 38.8145948,40.44 C38.1345914,40.7400015 37.569597,41.1499974 37.1195948,41.67 C36.6695925,42.1900026 36.324596,42.8099964 36.0845948,43.53 C35.8445936,44.2500036 35.704595,45.0399957 35.6645948,45.9 L34.5245948,45.9 C34.5245948,44.8799949 34.6795932,43.9450043 34.9895948,43.095 C35.2995963,42.2449958 35.7445919,41.520003 36.3245948,40.92 C36.9045977,40.319997 37.6045907,39.8500017 38.4245948,39.51 C39.2445989,39.1699983 40.1645897,39 41.1845948,39 C42.024599,39 42.8395908,39.099999 43.6295948,39.3 C44.4195987,39.500001 45.1195917,39.8099979 45.7295948,40.23 C46.3395978,40.6500021 46.8345929,41.1899967 47.2145948,41.85 C47.5945967,42.5100033 47.7845948,43.2999954 47.7845948,44.22 C47.7845948,44.8400031 47.6895957,45.4199973 47.4995948,45.96 C47.3095938,46.5000027 47.0345966,46.9799979 46.6745948,47.4 C46.314593,47.8200021 45.8845973,48.1649987 45.3845948,48.435 C44.8845923,48.7050014 44.3345978,48.8799996 43.7345948,48.96 L43.7345948,49.02 C44.4345983,49.1000004 45.064592,49.2899985 45.6245948,49.59 C46.1845976,49.8900015 46.6595928,50.2749977 47.0495948,50.745 C47.4395967,51.2150024 47.7395937,51.754997 47.9495948,52.365 C48.1595958,52.975003 48.2645948,53.6299965 48.2645948,54.33 C48.2645948,55.3500051 48.0745967,56.2399962 47.6945948,57 C47.3145929,57.7600038 46.804598,58.3949975 46.1645948,58.905 C45.5245916,59.4150025 44.7745991,59.7949988 43.9145948,60.045 C43.0545905,60.2950012 42.1445996,60.42 41.1845948,60.42 C40.0445891,60.42 39.0195993,60.2600016 38.1095948,59.94 C37.1995902,59.6199984 36.4295979,59.1550031 35.7995948,58.545 C35.1695916,57.9349969 34.6995963,57.1850045 34.3895948,56.295 C34.0795932,55.4049956 33.9545945,54.3800058 34.0145948,53.22 L35.1545948,53.22 Z M57.9545948,60.42 C56.4545873,60.42 55.2245996,60.0950033 54.2645948,59.445 C53.30459,58.7949967 52.5395976,57.9550052 51.9695948,56.925 C51.3995919,55.8949949 51.0045959,54.7450064 50.7845948,53.475 C50.5645937,52.2049937 50.4545948,50.9500062 50.4545948,49.71 C50.4545948,48.4699938 50.5645937,47.2150063 50.7845948,45.945 C51.0045959,44.6749937 51.3995919,43.5250051 51.9695948,42.495 C52.5395976,41.4649949 53.30459,40.6250033 54.2645948,39.975 C55.2245996,39.3249968 56.4545873,39 57.9545948,39 C59.4546023,39 60.68459,39.3249968 61.6445948,39.975 C62.6045996,40.6250033 63.3695919,41.4649949 63.9395948,42.495 C64.5095976,43.5250051 64.9045937,44.6749937 65.1245948,45.945 C65.3445959,47.2150063 65.4545948,48.4699938 65.4545948,49.71 C65.4545948,50.9500062 65.3445959,52.2049937 65.1245948,53.475 C64.9045937,54.7450064 64.5095976,55.8949949 63.9395948,56.925 C63.3695919,57.9550052 62.6045996,58.7949967 61.6445948,59.445 C60.68459,60.0950033 59.4546023,60.42 57.9545948,60.42 Z M57.9545948,59.43 C59.2346012,59.43 60.2895906,59.1200031 61.1195948,58.5 C61.9495989,57.8799969 62.5995924,57.0900048 63.0695948,56.13 C63.5395971,55.1699952 63.8645939,54.1200057 64.0445948,52.98 C64.2245957,51.8399943 64.3145948,50.7500052 64.3145948,49.71 C64.3145948,48.6699948 64.2245957,47.5800057 64.0445948,46.44 C63.8645939,45.2999943 63.5395971,44.2500048 63.0695948,43.29 C62.5995924,42.3299952 61.9495989,41.5400031 61.1195948,40.92 C60.2895906,40.2999969 59.2346012,39.99 57.9545948,39.99 C56.6545883,39.99 55.5945989,40.2999969 54.7745948,40.92 C53.9545907,41.5400031 53.3095971,42.3299952 52.8395948,43.29 C52.3695924,44.2500048 52.0445957,45.2999943 51.8645948,46.44 C51.6845939,47.5800057 51.5945948,48.6699948 51.5945948,49.71 C51.5945948,50.7500052 51.6845939,51.8399943 51.8645948,52.98 C52.0445957,54.1200057 52.3695924,55.1699952 52.8395948,56.13 C53.3095971,57.0900048 53.9545907,57.8799969 54.7745948,58.5 C55.5945989,59.1200031 56.6545883,59.43 57.9545948,59.43 Z"/>
  </g>
</svg>
