<svg xmlns="http://www.w3.org/2000/svg" width="100" height="100" viewBox="0 0 100 100">
  <g fill="#FF4747">
    <path d="M50,99 L50,99 C77.0619527,99 99,77.0619527 99,50 C99,22.9380473 77.0619527,1 50,1 C22.9380473,1 1,22.9380473 1,50 C1,77.0619527 22.9380473,99 50,99 L50,99 Z M50,100 L50,100 C22.3857625,100 0,77.6142375 0,50 C0,22.3857625 22.3857625,0 50,0 C77.6142375,0 100,22.3857625 100,50 C100,77.6142375 77.6142375,100 50,100 L50,100 Z"/>
    <path d="M71.0937309,28.208584 L42.3980787,68.208584 L43.1579012,68.1464846 L31.8535534,56.8421368 C31.6582912,56.6468746 31.3417088,56.6468746 31.1464466,56.8421368 C30.9511845,57.0373989 30.9511845,57.3539814 31.1464466,57.5492435 L42.4507944,68.8535914 C42.6689751,69.071772 43.0307583,69.0422039 43.210617,68.7914919 L71.9062691,28.7914919 C72.0672347,28.5671157 72.0158302,28.2547344 71.7914539,28.0937688 C71.5670777,27.9328033 71.2546964,27.9842078 71.0937309,28.208584 L71.0937309,28.208584 Z"/>
    <path d="M50,99 L50,99 C77.0619527,99 99,77.0619527 99,50 C99,22.9380473 77.0619527,1 50,1 C22.9380473,1 1,22.9380473 1,50 C1,77.0619527 22.9380473,99 50,99 L50,99 Z M50,100 L50,100 C22.3857625,100 0,77.6142375 0,50 C0,22.3857625 22.3857625,0 50,0 C77.6142375,0 100,22.3857625 100,50 C100,77.6142375 77.6142375,100 50,100 L50,100 Z"/>
    <path d="M71.0937309,28.208584 L42.3980787,68.208584 L43.1579012,68.1464846 L31.8535534,56.8421368 C31.6582912,56.6468746 31.3417088,56.6468746 31.1464466,56.8421368 C30.9511845,57.0373989 30.9511845,57.3539814 31.1464466,57.5492435 L42.4507944,68.8535914 C42.6689751,69.071772 43.0307583,69.0422039 43.210617,68.7914919 L71.9062691,28.7914919 C72.0672347,28.5671157 72.0158302,28.2547344 71.7914539,28.0937688 C71.5670777,27.9328033 71.2546964,27.9842078 71.0937309,28.208584 L71.0937309,28.208584 Z"/>
  </g>
</svg>
